# Exported from ProBuilder
# http://www.procore3d.com/probuilder
# 3/28/2018 2:06:46 PM

mtllib ./New_Game_Object.mtl
o New Game Object

g New Game Object
v 148.7 -17 151
v 146.7 -17 151
v 148.7 23 151
v 146.7 -17 151
v 146.7 23 151
v 148.7 23 151
v 146.7 -17 151
v 146.7 -17 72
v 146.7 12.63934 72
v 146.7 -17 151
v 146.7 12.63934 72
v 146.7 23 151
v 146.7 12.63934 72
v 146.7 23 72
v 146.7 23 151
v 146.7 10 72
v 146.7 9.999999 62
v 146.7 11.32787 62
v 146.7 10 72
v 146.7 11.32787 62
v 146.7 12.63934 72
v 146.7 12.63934 72
v 146.7 11.32787 62.00001
v 146.7 23 62
v 146.7 12.63934 72
v 146.7 23 62
v 146.7 23 72
v 146.7 -16.99999 62.00001
v 146.7 -9.999999 72
v 146.7 -17 72
v 146.7 -16.99999 62.00001
v 146.7 -17 72
v 146.7 -17 62.00001
v 146.7 -10 62.00001
v 146.7 -9.999999 72
v 146.7 -16.99999 62.00001
v 146.7 9.736351 62
v 146.7 9.73635 49.86467
v 146.7 11.32787 62
v 146.7 11.32787 62
v 146.7 9.73635 49.86467
v 146.7 9.736349 -154
v 146.7 11.32787 62
v 146.7 9.736349 -154
v 146.7 23 -154
v 146.7 11.32787 62
v 146.7 23 -154
v 146.7 23 62
v 146.7 11.32787 62.00001
v 146.7 11.32787 62
v 146.7 23 62
v 146.7 9.73635 51.99999
v 146.7 -17 52
v 146.7 -17 -154
v 146.7 9.73635 51.99999
v 146.7 -17 -154
v 146.7 9.73635 49.86467
v 146.7 9.73635 49.86467
v 146.7 -17 -154
v 146.7 9.736349 -154
v 146.7 -8.440351 52
v 146.7 -8.440351 62
v 146.7 -17 62
v 146.7 -8.440351 52
v 146.7 -17 62
v 146.7 -17 52
v 146.7 -16.99999 62.00001
v 146.7 -17 62.00001
v 146.7 -17 62
v 146.7 -10 62.00001
v 146.7 -16.99999 62.00001
v 146.7 -17 62
v 146.7 -10 62.00001
v 146.7 -17 62
v 146.7 -10 62
v 146.7 -8.440351 52
v 146.7 9.73635 51.99999
v 146.7 9.736351 62
v 146.7 -8.440351 52
v 146.7 9.736351 62
v 146.7 -8.440351 62
v 146.7 -10 62
v 146.7 -10 62.00001
v 146.7 -10 62
v 146.7 9.73635 -154
v 147.3632 9.736349 -154
v 146.7 23 -154
v 147.3632 9.73635 -154
v 148.7 9.736349 -154
v 148.7 23 -154
v 147.3632 9.73635 -154
v 148.7 23 -154
v 146.7 23 -154
v 146.7 9.73635 -154
v 146.7 -17 -154
v 148.7 -17 -154
v 146.7 9.73635 -154
v 148.7 -17 -154
v 147.3632 9.736349 -154
v 147.3632 9.73635 -154
v 148.7 -17 -154
v 148.7 9.736349 -154
v 148.7 -17 72
v 148.7 -17 151
v 148.7 -6.639344 72
v 148.7 -6.639344 72
v 148.7 -17 151
v 148.7 23 151
v 148.7 -6.639344 72
v 148.7 23 151
v 148.7 23 72
v 148.7 10.00001 62.00001
v 148.7 9.999999 62.00001
v 148.7 9.999999 72
v 148.7 10.00001 62.00001
v 148.7 9.999999 72
v 148.7 23 72
v 148.7 10.00001 62.00001
v 148.7 23 72
v 148.7 23 62.00001
v 148.7 -10 62.00001
v 148.7 -17 62
v 148.7 -17 72
v 148.7 -10 62.00001
v 148.7 -10.00001 62.00001
v 148.7 -17 72
v 148.7 -10 62.00001
v 148.7 -17 72
v 148.7 -10 72
v 148.7 9.73635 -154
v 148.7 9.736349 -52.86466
v 148.7 23 -154
v 148.7 9.73635 -52.86467
v 148.7 9.736349 62
v 148.7 23 62
v 148.7 9.73635 -52.86467
v 148.7 23 62
v 148.7 23 -154
v 148.7 10.00001 62.00001
v 148.7 9.999999 62
v 148.7 9.999999 62.00001
v 148.7 9.999999 62
v 148.7 10.00001 62.00001
v 148.7 23 62.00001
v 148.7 9.999999 62
v 148.7 23 62.00001
v 148.7 23 62
v 148.7 -5.868245 52
v 148.7 -17 -154
v 148.7 -17 51.99999
v 148.7 9.73635 -154
v 148.7 -17 -154
v 148.7 -5.868244 52
v 148.7 9.73635 -154
v 148.7 -5.868244 52
v 148.7 -4.016394 52
v 148.7 9.73635 -154
v 148.7 -4.016394 52
v 148.7 9.736349 -52.86466
v 148.7 9.736349 52.00001
v 148.7 9.73635 -52.86467
v 148.7 -4.016393 51.99999
v 148.7 -8.440351 52
v 148.7 -17 51.99999
v 148.7 -17 62
v 148.7 -8.440351 52
v 148.7 -17 62
v 148.7 -8.440351 62
v 148.7 -10 62.00001
v 148.7 -10 62
v 148.7 -17 62
v 148.7 -10 62.00001
v 148.7 -10 62
v 148.7 -10.00001 62.00001
v 148.7 10 62.00001
v 148.7 10 62.00001
v 148.7 10 62
v 148.7 23 72
v 148.7 23 151
v 146.7 23 151
v 148.7 23 72
v 146.7 23 151
v 147.218 23 72
v 147.218 23 72
v 146.7 23 151
v 146.7 23 72
v 148.7 23 62
v 148.7 23 72
v 147.218 23 72
v 148.7 23 62
v 147.218 23 72
v 147.2836 23 62.00001
v 147.2836 23 62
v 147.218 23 72
v 146.7 23 72
v 147.2836 23 62
v 146.7 23 72
v 146.7 23 62.00001
v 148.7 23 62
v 147.2836 23 62
v 148.7 23 -154
v 147.2836 23 62
v 146.7 23 62
v 146.7 23 -154
v 147.2836 23 62
v 146.7 23 -154
v 148.7 23 -154
v 148.7 23 62
v 147.2836 23 62.00001
v 147.2836 23 62
v 147.2836 23 62
v 146.7 23 62.00001
v 146.7 23 62
v 148.7 -17 72
v 148.182 -17 72
v 148.7 -17 151
v 148.182 -17 72
v 146.7 -17 72
v 146.7 -17 151
v 148.182 -17 72
v 146.7 -17 151
v 148.7 -17 151
v 148.7 -17 72
v 148.7 -17 62.00001
v 148.1164 -17 62
v 148.7 -17 72
v 148.1164 -17 62
v 148.182 -17 72
v 148.182 -17 72
v 148.1164 -17 62.00001
v 146.7 -17 62
v 148.182 -17 72
v 146.7 -17 62
v 146.7 -17 72
v 148.6074 -17 52
v 148.7 -17 52
v 148.7 -17 -154
v 148.6074 -17 52
v 148.7 -17 -154
v 146.7 -17 -154
v 148.6074 -17 52
v 146.7 -17 -154
v 148.0508 -17 51.99999
v 148.0508 -17 52
v 146.7 -17 -154
v 146.7 -17 51.99999
v 148.6074 -17 52
v 148.7 -17 62
v 148.7 -17 52
v 148.7 -17 62
v 148.6074 -17 52
v 148.0508 -17 51.99999
v 148.7 -17 62
v 148.0508 -17 51.99999
v 148.1164 -17 62
v 148.1164 -17 62
v 148.0508 -17 52
v 146.7 -17 51.99999
v 148.1164 -17 62
v 146.7 -17 51.99999
v 146.7 -17 62
v 148.7 -17 62.00001
v 148.7 -17 62
v 148.1164 -17 62
v 148.1164 -17 62.00001
v 148.1164 -17 62
v 146.7 -17 62
v 148.7 6.013288 72
v 146.7 3.355479 72
v 146.7 -10 72
v 148.7 6.013288 72
v 146.7 -10 72
v 148.7 -10 72
v 146.7 3.355483 72
v 148.7 6.013289 72
v 148.7 10 72
v 146.7 3.355483 72
v 148.7 10 72
v 146.7 10 72
v 146.7329 9.73635 62
v 146.7 9.73635 62
v 146.7 10 62
v 148.7 9.73635 62
v 146.7329 9.73635 62
v 146.7 10 62
v 148.7 9.73635 62
v 146.7 10 62
v 148.7 10 62
v 148.2305 -8.440351 62
v 148.7 -8.440351 62
v 148.7 -10 62
v 146.7 -8.440351 62
v 148.2305 -8.440351 62
v 148.7 -10 62
v 146.7 -8.440351 62
v 148.7 -10 62
v 146.7 -10 62
v 147.81 -7.043186 62
v 146.7 -3.355483 62
v 147.81 -4.830561 62
v 147.81 -8.440351 62
v 146.7 -8.440351 62
v 146.7 -3.355483 62
v 147.81 -8.440351 62
v 146.7 -3.355483 62
v 147.81 -7.043192 62
v 146.7329 9.73635 62
v 147.81 1.112653 62
v 147.81 -4.830564 62
v 146.7329 9.73635 62
v 147.81 -4.830564 62
v 146.7 -3.355479 62
v 146.7329 9.73635 62
v 146.7 -3.355479 62
v 146.7 9.73635 62
v 147.81 9.73635 62
v 147.81 1.11266 62
v 146.7329 9.73635 62
v 146.7 10 62.00001
v 148.7 10 62.00001
v 148.7 10 62
v 146.7 10 62.00001
v 148.7 10 62
v 146.7 10 62
v 148.7 -10 62
v 146.7 -10 62.00001
v 146.7 -10 62
v 148.7 -10 62
v 146.7 -10 62
v 148.7 -10 62
v 148.7 10 63.99335
v 146.7 10 65.32226
v 146.7 10 72
v 148.7 10 63.99335
v 146.7 10 72
v 148.7 10 72
v 148.7 10 62.00001
v 146.7 10 65.32226
v 148.7 10 63.99335
v 148.7 10 62.00001
v 148.7 10 63.99335
v 148.7 10 62.00001
v 146.7 10 62.00001
v 146.7 10 65.32226
v 148.7 10 62.00001
v 146.7 -10 62
v 148.7 -10 70.00665
v 146.7 -10 68.67774
v 146.7 -10 62
v 146.7 -10 68.67774
v 146.7 -10 62.00001
v 148.7 -10 62
v 148.7 -10 70.00665
v 146.7 -10 62.00001
v 146.7 -10 68.67774
v 148.7 -10 70.00665
v 148.7 -10 72
v 146.7 -10 68.67774
v 148.7 -10 72
v 146.7 -10 72
v 147.81 9.73635 62
v 148.7 9.73635 53.09996
v 148.7 9.73635 52
v 147.81 9.73635 62
v 148.7 9.73635 52
v 147.81 9.73635 52
v 147.81 9.73635 62
v 147.81 9.73635 52
v 147.81 9.73635 62
v 148.7 9.73635 62
v 148.7 9.73635 53.09996
v 147.81 9.73635 62
v 148.7 -6.440977 52
v 148.7 -8.440351 52
v 147.81 -8.440351 52
v 148.7 -6.440977 52
v 147.81 -8.440351 52
v 147.81 9.73635 52
v 148.7 9.73635 52
v 148.7 -6.440985 52
v 147.81 9.73635 52
v 148.7 -8.440351 60.90004
v 148.7 -8.440351 62
v 147.81 -8.440351 62
v 148.7 -8.440351 60.90004
v 147.81 -8.440351 62
v 147.81 -8.440351 52
v 148.7 -8.440351 52
v 148.7 -8.440351 60.90004
v 147.81 -8.440351 52
v 147.81 9.736343 62
v 147.81 9.73635 62
v 147.81 9.73635 52
v 147.81 9.736343 62
v 147.81 9.73635 52
v 147.81 -8.440351 52
v 147.81 -8.440351 62
v 147.81 9.736341 62
v 147.81 -8.440351 52

vn 0 0 1
vn 0 0 1
vn 0 0 1
vn 0 0 1
vn 0 0 1
vn 0 0 1
vn -1 0 0
vn -1 0 0
vn -1 0 0
vn -1 0 0
vn -1 0 0
vn -1 0 0
vn -1 0 0
vn -1 0 0
vn -1 0 0
vn -1 0 0
vn -1 0 0
vn -1 0 0
vn -1 0 0
vn -1 0 0
vn -1 0 0
vn -1 0 0
vn -1 0 0
vn -1 0 0
vn -1 0 0
vn -1 0 0
vn -1 0 0
vn -1 0 0
vn -1 0 0
vn -1 0 0
vn -1 0 0
vn -1 0 0
vn -1 0 0
vn -1 0 0
vn -1 0 0
vn -1 0 0
vn -1 0 0
vn -1 0 0
vn -1 0 0
vn -1 0 0
vn -1 0 0
vn -1 0 0
vn -0.9999999 0 0
vn -0.9999999 0 0
vn -0.9999999 0 0
vn -1 0 0
vn -1 0 0
vn -1 0 0
vn -1 0 0
vn -1 0 0
vn -1 0 0
vn -1 0 0
vn -1 0 0
vn -1 0 0
vn -1 0 0
vn -1 0 0
vn -1 0 0
vn -1 0 0
vn -1 0 0
vn -1 0 0
vn -1 0 0
vn -1 0 0
vn -1 0 0
vn -1 0 0
vn -1 0 0
vn -1 0 0
vn -1 0 0
vn -1 0 0
vn -1 0 0
vn -0.9999999 0 0
vn -0.9999999 0 0
vn -0.9999999 0 0
vn -1 0 0
vn -1 0 0
vn -1 0 0
vn -1 0 0
vn -1 0 0
vn -1 0 0
vn -1 0 0
vn -1 0 0
vn -1 0 0
vn 0 0 0
vn 0 0 0
vn 0 0 0
vn 0 0 -1
vn 0 0 -1
vn 0 0 -1
vn 0 0 -1
vn 0 0 -1
vn 0 0 -1
vn 0 0 -1
vn 0 0 -1
vn 0 0 -1
vn 0 0 -1
vn 0 0 -1
vn 0 0 -1
vn 0 0 -1
vn 0 0 -1
vn 0 0 -1
vn 0 0 -1
vn 0 0 -1
vn 0 0 -1
vn 1 0 0
vn 1 0 0
vn 1 0 0
vn 1 0 0
vn 1 0 0
vn 1 0 0
vn 1 0 0
vn 1 0 0
vn 1 0 0
vn 1 0 0
vn 1 0 0
vn 1 0 0
vn 1 0 0
vn 1 0 0
vn 1 0 0
vn 1 0 0
vn 1 0 0
vn 1 0 0
vn 1 0 0
vn 1 0 0
vn 1 0 0
vn 0.9999999 0 0
vn 0.9999999 0 0
vn 0.9999999 0 0
vn 1 0 0
vn 1 0 0
vn 1 0 0
vn 1 0 0
vn 1 0 0
vn 1 0 0
vn 0.9999999 0 0
vn 0.9999999 0 0
vn 0.9999999 0 0
vn 1 0 0
vn 1 0 0
vn 1 0 0
vn 1 0 0
vn 1 0 0
vn 1 0 0
vn 1 0 0
vn 1 0 0
vn 1 0 0
vn 1 0 0
vn 1 0 0
vn 1 0 0
vn 1 0 0
vn 1 0 0
vn 1 0 0
vn 1 0 0
vn 1 0 0
vn 1 0 0
vn 1 0 0
vn 1 0 0
vn 1 0 0
vn 1 0 0
vn 1 0 0
vn 1 0 0
vn 0.9999999 0 0
vn 0.9999999 0 0
vn 0.9999999 0 0
vn 1 0 0
vn 1 0 0
vn 1 0 0
vn 1 0 0
vn 1 0 0
vn 1 0 0
vn 1 0 0
vn 1 0 0
vn 1 0 0
vn 1 0 0
vn 1 0 0
vn 1 0 0
vn 0 0 0
vn 0 0 0
vn 0 0 0
vn 0 1 0
vn 0 1 0
vn 0 1 0
vn 0 1 0
vn 0 1 0
vn 0 1 0
vn 0 0.9999999 0
vn 0 0.9999999 0
vn 0 0.9999999 0
vn 0 1 0
vn 0 1 0
vn 0 1 0
vn 0 1 0
vn 0 1 0
vn 0 1 0
vn 0 0.9999999 0
vn 0 0.9999999 0
vn 0 0.9999999 0
vn 0 1 0
vn 0 1 0
vn 0 1 0
vn 0 1 0
vn 0 1 0
vn 0 1 0
vn 0 1 0
vn 0 1 0
vn 0 1 0
vn 0 1 0
vn 0 1 0
vn 0 1 0
vn 0 1 0
vn 0 1 0
vn 0 1 0
vn 0 1 0
vn 0 1 0
vn 0 1 0
vn 0 -0.9999999 0
vn 0 -0.9999999 0
vn 0 -0.9999999 0
vn 0 -1 0
vn 0 -1 0
vn 0 -1 0
vn 0 -1 0
vn 0 -1 0
vn 0 -1 0
vn 0 -1 0
vn 0 -1 0
vn 0 -1 0
vn 0 -0.9999999 0
vn 0 -0.9999999 0
vn 0 -0.9999999 0
vn 0 -1 0
vn 0 -1 0
vn 0 -1 0
vn 0 -1 0
vn 0 -1 0
vn 0 -1 0
vn 0 -1 0
vn 0 -1 0
vn 0 -1 0
vn 0 -1 0
vn 0 -1 0
vn 0 -1 0
vn 0 -1 0
vn 0 -1 0
vn 0 -1 0
vn 0 -1 0
vn 0 -1 0
vn 0 -1 0
vn 0 -1 0
vn 0 -1 0
vn 0 -1 0
vn 0 -1 0
vn 0 -1 0
vn 0 -1 0
vn 0 -1 0
vn 0 -1 0
vn 0 -1 0
vn 0 -1 0
vn 0 -1 0
vn 0 -1 0
vn 0 -1 0
vn 0 -1 0
vn 0 -1 0
vn 0 -1 0
vn 0 -1 0
vn 0 -1 0
vn 0 -1 0
vn 0 -1 0
vn 0 -1 0
vn 0 0 -0.9999999
vn 0 0 -0.9999999
vn 0 0 -0.9999999
vn 0 0 -1
vn 0 0 -1
vn 0 0 -1
vn 0 0 -0.9999999
vn 0 0 -0.9999999
vn 0 0 -0.9999999
vn 0 0 -1
vn 0 0 -1
vn 0 0 -1
vn 0 0 1
vn 0 0 1
vn 0 0 1
vn 0 0 1
vn 0 0 1
vn 0 0 1
vn 0 0 1
vn 0 0 1
vn 0 0 1
vn 0 0 1
vn 0 0 1
vn 0 0 1
vn 0 0 1
vn 0 0 1
vn 0 0 1
vn 0 0 1
vn 0 0 1
vn 0 0 1
vn 0 0 1
vn 0 0 1
vn 0 0 1
vn 0 0 1
vn 0 0 1
vn 0 0 1
vn 0 0 1
vn 0 0 1
vn 0 0 1
vn 0 0 1
vn 0 0 1
vn 0 0 1
vn 0 0 0.9999999
vn 0 0 0.9999999
vn 0 0 0.9999999
vn 0 0 1
vn 0 0 1
vn 0 0 1
vn 0 0 1
vn 0 0 1
vn 0 0 1
vn 0 -1 0
vn 0 -1 0
vn 0 -1 0
vn 0 -1 0
vn 0 -1 0
vn 0 -1 0
vn 0 1 0
vn 0 1 0
vn 0 1 0
vn 0 1 0
vn 0 1 0
vn 0 1 0
vn 0 -1 0
vn 0 -1 0
vn 0 -1 0
vn 0 -1 0
vn 0 -1 0
vn 0 -1 0
vn 0 -1 0
vn 0 -1 0
vn 0 -1 0
vn 0 0 0
vn 0 0 0
vn 0 0 0
vn 0 -1 0
vn 0 -1 0
vn 0 -1 0
vn 0 1 0
vn 0 1 0
vn 0 1 0
vn 0 0 0
vn 0 0 0
vn 0 0 0
vn 0 1 0
vn 0 1 0
vn 0 1 0
vn 0 1 0
vn 0 1 0
vn 0 1 0
vn 0 0.9999999 0
vn 0 0.9999999 0
vn 0 0.9999999 0
vn 0 -0.9999999 0
vn 0 -0.9999999 0
vn 0 -0.9999999 0
vn 0 -0.9999999 0
vn 0 -0.9999999 0
vn 0 -0.9999999 0
vn 0 0 0
vn 0 0 0
vn 0 0 0
vn 0 -1 0
vn 0 -1 0
vn 0 -1 0
vn 0 0 1
vn 0 0 1
vn 0 0 1
vn 0 0 1
vn 0 0 1
vn 0 0 1
vn 0 0 0.9999999
vn 0 0 0.9999999
vn 0 0 0.9999999
vn 0 0.9999999 0
vn 0 0.9999999 0
vn 0 0.9999999 0
vn 0 0.9999999 0
vn 0 0.9999999 0
vn 0 0.9999999 0
vn 0 0.9999999 0
vn 0 0.9999999 0
vn 0 0.9999999 0
vn 1 0 0
vn 1 0 0
vn 1 0 0
vn 1 0 0
vn 1 0 0
vn 1 0 0
vn 1 0 0
vn 1 0 0
vn 1 0 0

vt 0 0
vt -2 0
vt 0 40
vt -2 0
vt -2 40
vt 0 40
vt 0 0
vt -79 0
vt -79 29.63934
vt 0 0
vt -79 29.63934
vt 0 40
vt -79 29.63934
vt -79 40
vt 0 40
vt -79 27
vt -89 27
vt -89 28.32787
vt -79 27
vt -89 28.32787
vt -79 29.63934
vt -79 29.63934
vt -88.99999 28.32787
vt -89 40
vt -79 29.63934
vt -89 40
vt -79 40
vt -88.99999 8.761883E-06
vt -79 7
vt -79 0
vt -88.99999 8.761883E-06
vt -79 0
vt -88.99999 0
vt -89 7
vt -79 7
vt -88.99999 9.402057E-06
vt -89 26.73635
vt -101.1353 26.73635
vt -89 28.32787
vt -89.00001 28.32787
vt -101.1353 26.73635
vt -305 26.73635
vt -89.00001 28.32787
vt -305 26.73635
vt -305 40
vt -89.00001 28.32787
vt -305 40
vt -89 40
vt -88.99999 28.32787
vt -89.00001 28.32787
vt -89 40
vt -99.00002 26.73635
vt -99.00001 0
vt -305 0
vt -99.00002 26.73635
vt -305 0
vt -101.1353 26.73635
vt -101.1353 26.73635
vt -305 0
vt -305 26.73635
vt -99.00001 8.559649
vt -89.00001 8.559649
vt -89.00001 0
vt -99.00001 8.559649
vt -89.00001 0
vt -99.00001 0
vt -88.99999 8.761883E-06
vt -88.99999 0
vt -89.00001 0
vt -89 7
vt -88.99999 9.402057E-06
vt -89.00001 0
vt -89 7
vt -89.00001 0
vt -89.00001 7
vt -99.00001 8.559649
vt -99.00002 26.73635
vt -89 26.73635
vt -99.00001 8.559649
vt -89 26.73635
vt -89.00001 8.559649
vt -4.999998 -9.999994
vt -4.999999 -9.999993
vt -4.999999 -10
vt 2 26.73635
vt 1.336818 26.73635
vt 2 40
vt 1.336818 26.73635
vt 0 26.73635
vt 0 40
vt 1.336818 26.73635
vt 0 40
vt 2 40
vt 2 26.73635
vt 2 0
vt 0 0
vt 2 26.73635
vt 0 0
vt 1.336818 26.73635
vt 1.336818 26.73635
vt 0 0
vt 0 26.73635
vt 79 0
vt 0 0
vt 79 10.36066
vt 79 10.36066
vt 0 0
vt 0 40
vt 79 10.36066
vt 0 40
vt 79 40
vt 89 27.00001
vt 89 27
vt 79 27
vt 89 27.00001
vt 79 27
vt 79 40
vt 89 27.00001
vt 79 40
vt 88.99999 40
vt 89 6.999996
vt 89 0
vt 79 0
vt 89 7
vt 89 6.999995
vt 79 0
vt 89 7
vt 79 0
vt 79 7
vt 305 26.73635
vt 203.8647 26.73635
vt 305 40
vt 203.8647 26.73635
vt 89.00001 26.73635
vt 89.00001 40
vt 203.8647 26.73635
vt 89.00001 40
vt 305 40
vt 89 27.00001
vt 89.00001 27
vt 89 27
vt 89.00001 27
vt 89 27.00001
vt 88.99999 40
vt 89.00001 27
vt 88.99999 40
vt 89.00001 40
vt 99.00001 11.13175
vt 305 0
vt 99.00002 0
vt 305 26.73635
vt 305 0
vt 99.00001 11.13175
vt 305 26.73635
vt 99.00001 11.13175
vt 99 12.98361
vt 305 26.73635
vt 99 12.98361
vt 203.8647 26.73635
vt 99 26.73635
vt 203.8647 26.73635
vt 99.00001 12.98361
vt 99.00001 8.559649
vt 99.00002 0
vt 89 0
vt 99.00001 8.559649
vt 89 0
vt 89.00001 8.559649
vt 89 6.999996
vt 89.00001 7
vt 89 0
vt 89 7
vt 89.00001 7
vt 89 6.999995
vt 3.000005 -9.999993
vt 3.000001 -9.999993
vt 3.000001 -10
vt 0 -79
vt 0 0
vt 2 0
vt 0 -79
vt 2 0
vt 1.481967 -79
vt 1.481967 -79
vt 2 0
vt 2 -79
vt 0 -89
vt 0 -79
vt 1.481967 -79
vt 0 -89
vt 1.481967 -79
vt 1.416394 -88.99999
vt 1.416393 -89
vt 1.481967 -79
vt 2 -79
vt 1.416393 -89
vt 2 -79
vt 2 -88.99999
vt 0 -89
vt 1.416393 -89.00001
vt 0 -305
vt 1.416393 -89
vt 2 -89.00001
vt 2 -305
vt 1.416393 -89
vt 2 -305
vt 0 -305
vt 0 -89
vt 1.416394 -88.99999
vt 1.416393 -89.00001
vt 1.416393 -89
vt 2 -88.99999
vt 2 -89.00001
vt 0 -79
vt -0.5180328 -79
vt 0 0
vt -0.5180328 -79
vt -2 -79
vt -2 0
vt -0.5180328 -79
vt -2 0
vt 0 0
vt 0 -79
vt 0 -88.99999
vt -0.5836065 -89
vt 0 -79
vt -0.5836065 -89
vt -0.5180328 -79
vt -0.5180328 -79
vt -0.5836065 -88.99999
vt -2 -89
vt -0.5180328 -79
vt -2 -89
vt -2 -79
vt -0.09259257 -99.00001
vt 0 -99.00001
vt 0 -305
vt -0.09259257 -99.00001
vt 0 -305
vt -2 -305
vt -0.0925926 -99.00001
vt -2 -305
vt -0.6491804 -99.00002
vt -0.6491804 -99.00001
vt -2 -305
vt -2 -99.00002
vt -0.09259257 -99.00001
vt 0 -89.00001
vt 0 -99.00001
vt 0 -89.00001
vt -0.0925926 -99.00001
vt -0.6491804 -99.00002
vt 0 -89.00001
vt -0.6491804 -99.00002
vt -0.5836065 -89
vt -0.5836066 -89.00001
vt -0.6491804 -99.00001
vt -2 -99.00002
vt -0.5836066 -89.00001
vt -2 -99.00002
vt -2 -89
vt 0 -88.99999
vt 0 -89.00001
vt -0.5836065 -89
vt -0.5836065 -88.99999
vt -0.5836066 -89.00001
vt -2 -89
vt -3.000001 16.01329
vt -5.000002 13.35548
vt -4.999999 0
vt -3.000001 16.01329
vt -4.999999 0
vt -3 0
vt -4.999999 13.35548
vt -3 16.01329
vt -3.000001 20
vt -4.999999 13.35548
vt -3.000001 20
vt -5.000002 20
vt 4.96707 19.73635
vt 4.999999 19.73635
vt 4.999999 20
vt 3 19.73635
vt 4.96707 19.73635
vt 4.999999 20
vt 3 19.73635
vt 4.999999 20
vt 3 20
vt 3.469455 1.559649
vt 3 1.559649
vt 3.000001 0
vt 5.000001 1.559649
vt 3.469455 1.559649
vt 3.000001 0
vt 5.000001 1.559649
vt 3.000001 0
vt 5.000002 0
vt 3.890001 2.956813
vt 4.999999 6.644517
vt 3.890003 5.169439
vt 3.890002 1.559649
vt 5.000001 1.559649
vt 4.999999 6.644517
vt 3.890002 1.559649
vt 4.999999 6.644517
vt 3.89 2.956809
vt 4.96707 19.73635
vt 3.890004 11.11265
vt 3.890001 5.169436
vt 4.96707 19.73635
vt 3.890001 5.169436
vt 5.000002 6.644521
vt 4.96707 19.73635
vt 5.000002 6.644521
vt 4.999999 19.73635
vt 3.890003 19.73635
vt 3.890005 11.11266
vt 4.96707 19.73635
vt 5.000002 -9.999993
vt 3.000005 -9.999993
vt 3.000001 -10
vt 5.000002 -9.999993
vt 3.000001 -10
vt 5.000002 -10
vt -3 -9.999994
vt -4.999997 -9.999993
vt -4.999999 -10
vt -3 -9.999994
vt -4.999999 -10
vt -3 -10
vt 3.000001 -8.006644
vt 5.000002 -6.67774
vt 4.999999 0
vt 3.000001 -8.006644
vt 4.999999 0
vt 3 0
vt 3.000005 -9.999993
vt 4.999999 -6.677742
vt 3 -8.006645
vt 3.000005 -9.999993
vt 3 -8.006645
vt 3.000001 -9.999993
vt 5.000002 -9.999993
vt 4.999999 -6.677742
vt 3.000005 -9.999993
vt -4.999998 -9.999994
vt -3.000001 -1.993356
vt -5.000002 -3.32226
vt -4.999998 -9.999994
vt -5.000002 -3.32226
vt -4.999999 -9.999993
vt -3 -9.999994
vt -3.000001 -1.993356
vt -4.999997 -9.999993
vt -4.999999 -3.322258
vt -3 -1.993355
vt -3.000001 0
vt -4.999999 -3.322258
vt -3.000001 0
vt -5.000002 0
vt 2.121934E-07 2.121934E-07
vt 0.8900035 0.8900035
vt 0.8900039 1
vt 2.121934E-07 2.121934E-07
vt 0.8900039 1
vt 0 1
vt 2.121934E-07 2.121934E-07
vt 0 1
vt 0 3.827411E-07
vt 0.8900035 2.121935E-07
vt 0.8900039 0.8900039
vt 3.82741E-07 3.82741E-07
vt 0.8900035 0.8900035
vt 0.8900039 1
vt 0 1
vt 0.8900035 0.8900035
vt 0 1
vt 0 0
vt 0.8900035 0
vt 0.8900039 0.8900039
vt 0 0
vt 0.8900035 0.8900035
vt 0.8900039 0.9999996
vt 0 0.9999995
vt 0.8900035 0.8900035
vt 0 0.9999995
vt 0 0
vt 0.8900035 0
vt 0.8900039 0.8900039
vt 0 0
vt 0.9999996 0.9999996
vt 0.9999995 1
vt 0 1
vt 0.9999996 0.9999996
vt 0 1
vt 0 0
vt 0.9999996 0
vt 0.9999995 0.9999995
vt 0 0

g New Game Object
usemtl Zilver
f 3/3/3 2/2/2 1/1/1
f 6/6/6 5/5/5 4/4/4
f 9/9/9 8/8/8 7/7/7
f 12/12/12 11/11/11 10/10/10
f 15/15/15 14/14/14 13/13/13
f 18/18/18 17/17/17 16/16/16
f 21/21/21 20/20/20 19/19/19
f 24/24/24 23/23/23 22/22/22
f 27/27/27 26/26/26 25/25/25
f 30/30/30 29/29/29 28/28/28
f 33/33/33 32/32/32 31/31/31
f 36/36/36 35/35/35 34/34/34
f 39/39/39 38/38/38 37/37/37
f 42/42/42 41/41/41 40/40/40
f 45/45/45 44/44/44 43/43/43
f 48/48/48 47/47/47 46/46/46
f 51/51/51 50/50/50 49/49/49
f 54/54/54 53/53/53 52/52/52
f 57/57/57 56/56/56 55/55/55
f 60/60/60 59/59/59 58/58/58
f 63/63/63 62/62/62 61/61/61
f 66/66/66 65/65/65 64/64/64
f 69/69/69 68/68/68 67/67/67
f 72/72/72 71/71/71 70/70/70
f 75/75/75 74/74/74 73/73/73
f 78/78/78 77/77/77 76/76/76
f 81/81/81 80/80/80 79/79/79
f 84/84/84 83/83/83 82/82/82
f 87/87/87 86/86/86 85/85/85
f 90/90/90 89/89/89 88/88/88
f 93/93/93 92/92/92 91/91/91
f 96/96/96 95/95/95 94/94/94
f 99/99/99 98/98/98 97/97/97
f 102/102/102 101/101/101 100/100/100
f 105/105/105 104/104/104 103/103/103
f 108/108/108 107/107/107 106/106/106
f 111/111/111 110/110/110 109/109/109
f 114/114/114 113/113/113 112/112/112
f 117/117/117 116/116/116 115/115/115
f 120/120/120 119/119/119 118/118/118
f 123/123/123 122/122/122 121/121/121
f 126/126/126 125/125/125 124/124/124
f 129/129/129 128/128/128 127/127/127
f 132/132/132 131/131/131 130/130/130
f 135/135/135 134/134/134 133/133/133
f 138/138/138 137/137/137 136/136/136
f 141/141/141 140/140/140 139/139/139
f 144/144/144 143/143/143 142/142/142
f 147/147/147 146/146/146 145/145/145
f 150/150/150 149/149/149 148/148/148
f 153/153/153 152/152/152 151/151/151
f 156/156/156 155/155/155 154/154/154
f 159/159/159 158/158/158 157/157/157
f 162/162/162 161/161/161 160/160/160
f 165/165/165 164/164/164 163/163/163
f 168/168/168 167/167/167 166/166/166
f 171/171/171 170/170/170 169/169/169
f 174/174/174 173/173/173 172/172/172
f 177/177/177 176/176/176 175/175/175
f 180/180/180 179/179/179 178/178/178
f 183/183/183 182/182/182 181/181/181
f 186/186/186 185/185/185 184/184/184
f 189/189/189 188/188/188 187/187/187
f 192/192/192 191/191/191 190/190/190
f 195/195/195 194/194/194 193/193/193
f 198/198/198 197/197/197 196/196/196
f 201/201/201 200/200/200 199/199/199
f 204/204/204 203/203/203 202/202/202
f 207/207/207 206/206/206 205/205/205
f 210/210/210 209/209/209 208/208/208
f 213/213/213 212/212/212 211/211/211
f 216/216/216 215/215/215 214/214/214
f 219/219/219 218/218/218 217/217/217
f 222/222/222 221/221/221 220/220/220
f 225/225/225 224/224/224 223/223/223
f 228/228/228 227/227/227 226/226/226
f 231/231/231 230/230/230 229/229/229
f 234/234/234 233/233/233 232/232/232
f 237/237/237 236/236/236 235/235/235
f 240/240/240 239/239/239 238/238/238
f 243/243/243 242/242/242 241/241/241
f 246/246/246 245/245/245 244/244/244
f 249/249/249 248/248/248 247/247/247
f 252/252/252 251/251/251 250/250/250
f 255/255/255 254/254/254 253/253/253
f 258/258/258 257/257/257 256/256/256
f 261/261/261 260/260/260 259/259/259
f 264/264/264 263/263/263 262/262/262
f 267/267/267 266/266/266 265/265/265
f 270/270/270 269/269/269 268/268/268
f 273/273/273 272/272/272 271/271/271
f 276/276/276 275/275/275 274/274/274
f 279/279/279 278/278/278 277/277/277
f 282/282/282 281/281/281 280/280/280
f 285/285/285 284/284/284 283/283/283
f 288/288/288 287/287/287 286/286/286
f 291/291/291 290/290/290 289/289/289
f 294/294/294 293/293/293 292/292/292
f 297/297/297 296/296/296 295/295/295
f 300/300/300 299/299/299 298/298/298
f 303/303/303 302/302/302 301/301/301
f 306/306/306 305/305/305 304/304/304
f 309/309/309 308/308/308 307/307/307
f 312/312/312 311/311/311 310/310/310
f 315/315/315 314/314/314 313/313/313
f 318/318/318 317/317/317 316/316/316
f 321/321/321 320/320/320 319/319/319
f 324/324/324 323/323/323 322/322/322
f 327/327/327 326/326/326 325/325/325
f 330/330/330 329/329/329 328/328/328
f 333/333/333 332/332/332 331/331/331
f 336/336/336 335/335/335 334/334/334
f 339/339/339 338/338/338 337/337/337
f 342/342/342 341/341/341 340/340/340
f 345/345/345 344/344/344 343/343/343
f 348/348/348 347/347/347 346/346/346
f 351/351/351 350/350/350 349/349/349
f 354/354/354 353/353/353 352/352/352
f 357/357/357 356/356/356 355/355/355
f 360/360/360 359/359/359 358/358/358
f 363/363/363 362/362/362 361/361/361
f 366/366/366 365/365/365 364/364/364
f 369/369/369 368/368/368 367/367/367
f 372/372/372 371/371/371 370/370/370
f 375/375/375 374/374/374 373/373/373
f 378/378/378 377/377/377 376/376/376
f 381/381/381 380/380/380 379/379/379
f 384/384/384 383/383/383 382/382/382
f 387/387/387 386/386/386 385/385/385
f 390/390/390 389/389/389 388/388/388
f 393/393/393 392/392/392 391/391/391
f 396/396/396 395/395/395 394/394/394
f 399/399/399 398/398/398 397/397/397

